<svg width="102" height="36" viewBox="0 0 102 36" fill="none" xmlns="http://www.w3.org/2000/svg">
<path d="M19.3014 7.92913C18.1269 6.57898 16.0038 6.00014 13.2879 6.00014H5.40536C5.1365 5.99999 4.87642 6.09664 4.67192 6.27267C4.46741 6.4487 4.33191 6.69257 4.28981 6.96039L1.00909 27.9563C0.99388 28.0537 0.999785 28.1533 1.0264 28.2482C1.05301 28.3431 1.09971 28.431 1.16326 28.5059C1.22681 28.5808 1.30571 28.641 1.39453 28.6822C1.48334 28.7234 1.57996 28.7447 1.67772 28.7446H6.54407L7.76627 20.9261L7.72838 21.1709C7.76968 20.9036 7.90428 20.66 8.10791 20.484C8.31154 20.3079 8.57082 20.211 8.83903 20.2107H11.1515C15.6944 20.2107 19.2516 18.3496 20.2907 12.966C20.3215 12.8068 20.3482 12.6518 20.3713 12.5004C20.68 10.5105 20.3692 9.15615 19.3021 7.92983" fill="#003087"/>
<path d="M78.8761 17.92C78.5786 19.89 77.087 19.89 75.6445 19.89H74.8237L75.3997 16.2118C75.4348 15.9896 75.6242 15.8261 75.8473 15.8261H76.2241C77.2063 15.8261 78.1338 15.8261 78.6123 16.3901C78.8979 16.7277 78.9842 17.2287 78.8761 17.92ZM78.2482 12.7798H72.8066C72.6263 12.7799 72.452 12.8448 72.315 12.9628C72.1779 13.0808 72.087 13.2443 72.0586 13.4238L69.8598 27.4963C69.8497 27.5615 69.8537 27.6282 69.8715 27.6918C69.8894 27.7553 69.9206 27.8142 69.9631 27.8644C70.0057 27.9146 70.0584 27.955 70.1179 27.9827C70.1773 28.0104 70.242 28.0248 70.3074 28.0249H73.0998C73.3601 28.0249 73.5818 27.8338 73.6225 27.5749L74.2469 23.5838C74.3045 23.2138 74.6216 22.9399 74.9934 22.9399H76.7152C80.3004 22.9399 82.3687 21.1914 82.9089 17.7233C83.1524 16.2076 82.9187 15.0159 82.215 14.1816C81.4412 13.2645 80.0695 12.7791 78.2489 12.7791" fill="#009CDE"/>
<path d="M40.0633 17.92C39.7658 19.8901 38.2742 19.8901 36.831 19.8901H36.0101L36.5861 16.2118C36.6212 15.9896 36.8107 15.8262 37.0338 15.8262H37.4105C38.3928 15.8262 39.3203 15.8262 39.7988 16.3902C40.0851 16.7277 40.1714 17.2287 40.0633 17.92ZM39.4354 12.7799H33.9937C33.6219 12.7799 33.3047 13.053 33.2465 13.4238L31.047 27.4963C31.0367 27.5616 31.0406 27.6283 31.0584 27.6919C31.0762 27.7555 31.1074 27.8145 31.15 27.8647C31.1925 27.9149 31.2454 27.9553 31.3048 27.9829C31.3643 28.0106 31.4291 28.0249 31.4946 28.0249H34.0933C34.4652 28.0249 34.7816 27.7518 34.8398 27.381L35.4341 23.5846C35.4916 23.2138 35.8088 22.9406 36.1806 22.9406H37.9024C41.4876 22.9406 43.5559 21.1914 44.0961 17.7233C44.3396 16.2076 44.106 15.0159 43.4023 14.1817C42.6284 13.2646 41.2567 12.7791 39.4361 12.7791L39.4354 12.7799ZM52.0692 22.9725C51.8166 24.4741 50.6358 25.4824 49.1281 25.4824C48.3724 25.4824 47.767 25.2369 47.3783 24.7727C46.9924 24.3127 46.8478 23.6568 46.9699 22.9272C47.2043 21.4384 48.4054 20.3981 49.89 20.3981C50.6302 20.3981 51.2301 20.6458 51.6272 21.1143C52.0264 21.5863 52.1836 22.2458 52.0692 22.9725ZM55.7007 17.8564H53.095C52.9866 17.8562 52.8818 17.8952 52.7995 17.9662C52.7171 18.0371 52.6627 18.1355 52.6459 18.2434L52.5323 18.9779L52.3499 18.7119C51.7858 17.8861 50.5278 17.6094 49.2719 17.6094C46.3932 17.6094 43.9341 19.8101 43.4556 22.8954C43.2065 24.4359 43.5601 25.907 44.4259 26.9338C45.2208 27.877 46.3553 28.2698 47.7073 28.2698C50.0282 28.2698 51.315 26.7668 51.315 26.7668L51.1985 27.497C51.1883 27.5624 51.1922 27.6292 51.21 27.6928C51.2278 27.7564 51.2591 27.8154 51.3018 27.8657C51.3444 27.9159 51.3973 27.9562 51.4569 27.9839C51.5165 28.0115 51.5813 28.0257 51.6468 28.0256H53.993C54.3649 28.0256 54.682 27.7532 54.7402 27.3817L56.1491 18.3857C56.1592 18.3203 56.1552 18.2535 56.1373 18.1899C56.1193 18.1262 56.088 18.0673 56.0453 18.017C56.0026 17.9668 55.9496 17.9265 55.89 17.8989C55.8304 17.8712 55.7656 17.857 55.7 17.8571" fill="#003087"/>
<path d="M90.882 22.9725C90.6294 24.4741 89.4486 25.4824 87.9409 25.4824C87.1852 25.4824 86.5798 25.2369 86.1911 24.7727C85.8052 24.3127 85.6606 23.6568 85.7827 22.9272C86.0171 21.4384 87.2175 20.3982 88.7028 20.3982C89.443 20.3982 90.0429 20.6458 90.44 21.1143C90.8392 21.5863 90.9964 22.2458 90.882 22.9725ZM94.5135 17.8564H91.9078C91.7994 17.8562 91.6946 17.8952 91.6123 17.9662C91.5299 18.0372 91.4755 18.1355 91.4587 18.2434L91.3451 18.978L91.1627 18.7119C90.5986 17.8861 89.3406 17.6094 88.0847 17.6094C85.2067 17.6094 82.7476 19.8101 82.2684 22.8954C82.0193 24.4359 82.3736 25.907 83.2394 26.9338C84.0343 27.877 85.1688 28.2698 86.5208 28.2698C88.8424 28.2698 90.1292 26.7668 90.1292 26.7668L90.0127 27.497C90.0022 27.5623 90.006 27.629 90.0236 27.6927C90.0413 27.7563 90.0724 27.8153 90.1149 27.8656C90.1574 27.9159 90.2103 27.9563 90.2698 27.9839C90.3293 28.0115 90.3941 28.0258 90.4596 28.0256H92.8051C93.177 28.0256 93.4941 27.7532 93.553 27.3817L94.9619 18.3857C94.972 18.3203 94.968 18.2535 94.9501 18.1899C94.9321 18.1262 94.9008 18.0673 94.8581 18.017C94.8154 17.9668 94.7625 17.9265 94.7029 17.8989C94.6433 17.8713 94.5784 17.857 94.5128 17.8571" fill="#009CDE"/>
<path d="M69.5791 17.857H66.9593C66.7089 17.857 66.4752 17.9823 66.3349 18.1918L62.7216 23.5584L61.19 18.4012C61.1433 18.2439 61.0476 18.106 60.917 18.0078C60.7865 17.9097 60.6281 17.8566 60.4653 17.8563H57.8911C57.8189 17.8564 57.7478 17.8738 57.6836 17.9071C57.6194 17.9404 57.564 17.9887 57.522 18.0479C57.4801 18.1071 57.4527 18.1756 57.4422 18.2476C57.4317 18.3197 57.4384 18.3932 57.4617 18.4621L60.3453 27.0003L57.6329 30.8604C57.585 30.9289 57.5566 31.0094 57.5509 31.093C57.5453 31.1767 57.5625 31.2603 57.6007 31.3348C57.6389 31.4093 57.6967 31.4717 57.7677 31.5153C57.8387 31.559 57.9202 31.5821 58.0034 31.5822H60.6203C60.8673 31.5822 61.0995 31.4597 61.2413 31.2545L69.951 18.5753C69.9983 18.5068 70.026 18.4265 70.0313 18.3431C70.0365 18.2598 70.019 18.1766 69.9807 18.1026C69.9424 18.0286 69.8847 17.9666 69.8139 17.9233C69.7431 17.88 69.6619 17.8571 69.5791 17.857Z" fill="#003087"/>
<path d="M97.5846 13.1669L95.3507 27.497C95.3405 27.5623 95.3446 27.6291 95.3624 27.6927C95.3803 27.7563 95.4116 27.8152 95.4542 27.8654C95.4968 27.9156 95.5497 27.956 95.6092 27.9836C95.6687 28.0113 95.7335 28.0256 95.799 28.0256H98.0448C98.4167 28.0256 98.7338 27.7525 98.7921 27.3817L100.994 13.3084C101.005 13.2431 101.001 13.1763 100.983 13.1127C100.965 13.0491 100.934 12.9901 100.891 12.9398C100.849 12.8896 100.796 12.8492 100.736 12.8216C100.676 12.794 100.612 12.7797 100.546 12.7798H98.0329C97.9247 12.7796 97.82 12.8184 97.7378 12.8893C97.6555 12.9601 97.6012 13.0584 97.5846 13.1662" fill="#009CDE"/>
<path d="M19.3014 7.92913C18.1269 6.57898 16.0038 6.00014 13.2879 6.00014H5.40536C5.1365 5.99999 4.87642 6.09664 4.67192 6.27267C4.46741 6.4487 4.33191 6.69257 4.28981 6.96039L1.00909 27.9563C0.99388 28.0537 0.999785 28.1533 1.0264 28.2482C1.05301 28.3431 1.09971 28.431 1.16326 28.5059C1.22681 28.5808 1.30571 28.641 1.39453 28.6822C1.48334 28.7234 1.57996 28.7447 1.67772 28.7446H6.54407L7.76627 20.9261L7.72838 21.1709C7.76968 20.9036 7.90428 20.66 8.10791 20.484C8.31154 20.3079 8.57082 20.211 8.83903 20.2107H11.1515C15.6944 20.2107 19.2516 18.3496 20.2907 12.966C20.3215 12.8068 20.3482 12.6518 20.3713 12.5004C20.68 10.5105 20.3692 9.15615 19.3021 7.92983" fill="#003087"/>
<path d="M9.07893 12.5264C9.11581 12.2924 9.23417 12.0793 9.41277 11.9254C9.59138 11.7714 9.81853 11.6867 10.0535 11.6865H16.2332C16.965 11.6865 17.6477 11.7346 18.2714 11.8351C18.6124 11.8904 18.9498 11.9665 19.2817 12.0629C19.6586 12.1698 20.0234 12.3164 20.3699 12.5002C20.68 10.5097 20.3685 9.15599 19.3013 7.92897C18.1262 6.57952 16.0038 6.00068 13.2879 6.00068H5.40462C5.136 6.00088 4.87626 6.09767 4.67204 6.27367C4.46783 6.44968 4.33254 6.69336 4.29047 6.96094L1.00835 27.9548C0.993034 28.0522 0.998837 28.1518 1.02536 28.2467C1.05188 28.3416 1.09849 28.4296 1.16198 28.5046C1.22547 28.5796 1.30432 28.6398 1.39311 28.6811C1.4819 28.7224 1.57851 28.7438 1.67628 28.7438H6.54333L7.76553 20.9245L9.07893 12.5264Z" fill="#003087"/>
<path d="M20.3705 12.4996C20.3465 12.6553 20.3196 12.8105 20.2899 12.9652C19.2508 18.3481 15.6936 20.2099 11.1507 20.2099H8.83753C8.56936 20.2101 8.3101 20.307 8.10656 20.4831C7.90301 20.6592 7.7686 20.9029 7.72759 21.1702L6.54328 28.7432L6.20651 30.8915C6.19312 30.9768 6.19822 31.064 6.22147 31.1471C6.24473 31.2302 6.28557 31.3073 6.34119 31.3729C6.39681 31.4386 6.46589 31.4913 6.54365 31.5274C6.62142 31.5635 6.70603 31.5822 6.79165 31.5822H10.8939C11.3795 31.5822 11.792 31.2255 11.8685 30.7422L11.9085 30.5313L12.6816 25.5893L12.7308 25.3161C12.7675 25.0819 12.8859 24.8687 13.0647 24.7147C13.2435 24.5607 13.4709 24.4761 13.706 24.4762H14.3199C18.2938 24.4762 21.4054 22.8486 22.3147 18.1387C22.6936 16.1715 22.4971 14.5277 21.4938 13.3735C21.1752 13.0157 20.7946 12.7196 20.3705 12.4996Z" fill="#009CDE"/>
<path d="M19.2823 12.063C19.1238 12.0156 18.9603 11.9732 18.7919 11.9357C18.6235 11.8982 18.4495 11.8649 18.2713 11.8366C17.6469 11.734 16.9649 11.6859 16.2324 11.6859H10.0534C9.81818 11.6856 9.59064 11.7702 9.4119 11.9244C9.23316 12.0785 9.11502 12.2921 9.07884 12.5265L7.76543 20.926L7.72754 21.1702C7.76855 20.9029 7.90296 20.6592 8.10651 20.4831C8.31005 20.307 8.56932 20.2101 8.83748 20.2099H11.1507C15.6936 20.2099 19.2508 18.3489 20.2898 12.9653C20.3207 12.806 20.3467 12.6518 20.3705 12.4996C20.0961 12.3548 19.8103 12.2332 19.516 12.1359C19.4395 12.1105 19.3616 12.0864 19.2823 12.0623" fill="#012169"/>
</svg>
