<svg width="112" height="36" viewBox="0 0 112 36" fill="none" xmlns="http://www.w3.org/2000/svg">
<g clip-path="url(#clip0)">
<path d="M12.6449 21.7101C12.4975 21.7832 12.3367 21.823 12.1625 21.823C11.7605 21.823 11.4121 21.6038 11.2312 21.2849L11.1642 21.1321L8.24958 14.7948C8.21608 14.7284 8.19598 14.6486 8.19598 14.5689C8.19598 14.2766 8.43719 14.0375 8.73199 14.0375C8.8526 14.0375 8.9598 14.0773 9.0536 14.1438L12.4908 16.5684C12.7387 16.7345 13.0402 16.8275 13.3618 16.8275C13.5561 16.8275 13.737 16.7943 13.9112 16.7279L30.0787 9.6C27.1843 6.2121 22.407 4 17.0067 4C8.16248 4 1 9.91886 1 17.2261C1 21.2119 3.15745 24.799 6.52764 27.2237C6.79565 27.4164 6.97655 27.7286 6.97655 28.0873C6.97655 28.2069 6.94975 28.3132 6.92295 28.4261C6.65494 29.4225 6.21943 31.0168 6.19933 31.0966C6.16583 31.2228 6.11223 31.349 6.11223 31.4818C6.11223 31.7741 6.35343 32.0133 6.64824 32.0133C6.76214 32.0133 6.85595 31.9734 6.95645 31.9136L10.4606 29.9075C10.7219 29.7547 11.0034 29.6617 11.3116 29.6617C11.4724 29.6617 11.6332 29.6883 11.7806 29.7348C13.4154 30.1998 15.1776 30.4588 17.0067 30.4588C25.8442 30.4588 33.0134 24.54 33.0134 17.2327C33.0134 15.0206 32.3501 12.9348 31.191 11.1013L12.7588 21.6437L12.6449 21.7101Z" fill="#39B54A"/>
<path d="M47.7 19.117L47.4726 19.9131C47.2807 20.5754 47.1173 21.1602 46.9751 21.7379C46.7904 20.8854 46.5345 19.9343 46.3071 19.0958L44.7935 13.4383L44.7651 13.3397H43.7702L42.079 19.1311C41.7734 20.1104 41.5105 20.9981 41.3186 21.7661C41.1765 21.1531 40.9988 20.4697 40.8141 19.7581L39.1725 13.4383L39.1441 13.3397H38L40.7501 23.6613L40.7785 23.76H41.7521L43.5215 17.8488C43.8271 16.8413 44.0616 16.0451 44.2321 15.3547C44.3814 16.0874 44.5946 16.8906 44.8504 17.8417L46.3782 23.6613L46.4066 23.76H47.3944L50.4927 13.5087L50.5496 13.3326H49.3983L47.7 19.117Z" fill="#333333"/>
<path d="M54.1666 16.0522C52.1129 16.0522 50.7272 17.6867 50.7272 20.1174C50.7272 22.379 52.1555 23.9009 54.2874 23.9009C55.6233 23.9009 56.3837 23.5627 56.6537 23.4147L56.8172 23.3231L56.334 22.4988L56.2203 22.5481C55.8436 22.7243 55.332 22.9004 54.3798 22.9004C52.8235 22.9004 51.8997 21.8858 51.8357 20.1104H57.1085L57.1441 19.9554C57.1796 19.8004 57.1796 19.6876 57.1796 19.4833C57.1796 19.2015 57.1441 18.2292 56.6324 17.3838C56.0924 16.5031 55.268 16.0522 54.1666 16.0522ZM51.8855 19.1522C52.1626 17.6022 53.193 17.0456 54.0742 17.0456C54.6356 17.0456 55.0833 17.2147 55.4102 17.5458C55.8934 18.032 56 18.7365 56.0213 19.1592H51.8855V19.1522Z" fill="#333333"/>
<path d="M65.6573 22.4847C65.0888 22.7454 64.2929 22.9004 63.5255 22.9004C60.9743 22.9004 59.4465 21.3011 59.4465 18.6167C59.4465 15.8338 61.017 14.171 63.6463 14.171C64.3711 14.171 65.0675 14.3049 65.5934 14.5515L65.7071 14.6078L66.2187 13.7272L66.0624 13.6426C65.8563 13.5299 65.0817 13.1706 63.6249 13.1706C60.4343 13.1706 58.2953 15.3547 58.2953 18.6026C58.2953 22.5129 60.9814 23.9009 63.2838 23.9009C64.5772 23.9009 65.5934 23.6261 66.105 23.3725L66.2756 23.2879L65.7781 22.4284L65.6573 22.4847Z" fill="#333333"/>
<path d="M70.852 16.0522C70.2906 16.0522 69.7506 16.2072 69.2958 16.496C69.0328 16.644 68.7912 16.8483 68.5852 17.0949V13.1706H67.4695V23.7529H68.5852V19.1945C68.5852 18.9197 68.5994 18.7436 68.6633 18.5463C68.976 17.6797 69.7932 17.0667 70.6531 17.0667C72.2022 17.0667 72.4367 18.4829 72.4367 19.3283V23.7529H73.5524V19.2579C73.5595 16.2072 71.3068 16.0522 70.852 16.0522Z" fill="#333333"/>
<path d="M83.5153 14.6149H82.3996V16.2917H81.1844V17.1935H82.3996V21.5054C82.3996 22.3649 82.5631 22.9638 82.8899 23.3372C83.1884 23.7177 83.6716 23.9149 84.2756 23.9149C84.6949 23.9149 85.0644 23.8515 85.3629 23.7177L85.5405 23.6402L85.0715 22.837L84.972 22.8581C84.8015 22.8933 84.5954 22.9145 84.3609 22.9145C83.764 22.9145 83.5082 22.534 83.5082 21.6392V17.1935H85.5619V16.2917H83.5082V14.6149H83.5153Z" fill="#333333"/>
<path d="M92.867 13.2552C92.128 13.2552 91.3818 13.3186 90.657 13.4525L90.4935 13.4807V23.753H91.6092V19.5187C91.9077 19.575 92.2417 19.5891 92.6396 19.5891C93.9756 19.5891 95.0841 19.1664 95.7592 18.4125C96.2709 17.8559 96.5125 17.1584 96.5125 16.2707C96.5125 15.4041 96.2211 14.6784 95.674 14.1641C95.0628 13.5722 94.0964 13.2552 92.867 13.2552ZM91.6092 14.3332C91.8295 14.2979 92.2346 14.2486 92.8386 14.2486C94.4659 14.2486 95.4039 15.0095 95.4039 16.3411C95.4039 17.7784 94.4233 18.6027 92.7036 18.6027C92.3696 18.6027 91.9503 18.5886 91.6092 18.5041V14.3332Z" fill="#333333"/>
<path d="M108.806 16.2213L107.001 20.977C106.859 21.3505 106.731 21.7239 106.625 22.0409C106.511 21.6957 106.383 21.3364 106.262 21.0193L104.372 16.3481L104.322 16.2213H103.128L105.907 23.1118C105.985 23.3021 105.985 23.3514 105.985 23.3514C105.985 23.4007 105.95 23.4993 105.907 23.5909C105.552 24.4364 105.083 25 104.749 25.3241C104.294 25.7539 103.811 25.9794 103.555 26.0709L103.356 26.1414L104.194 27.008C104.386 26.9375 104.678 26.7191 105.239 26.2541C106.198 25.4228 106.802 24.1616 107.726 21.8225L109.922 16.4115L110 16.2284H108.806V16.2213Z" fill="#333333"/>
<path d="M80.3103 21.8648V19.0677C80.3103 17.102 79.3794 16.0593 77.6242 16.0593C76.8496 16.0593 76.0111 16.2988 75.3999 16.7004L75.2862 16.7709L75.7694 17.6022L75.8903 17.5247C76.345 17.2218 76.9278 17.0527 77.546 17.0527H77.5744C78.0719 17.0527 78.4556 17.1865 78.7185 17.4472C79.0383 17.7643 79.1946 18.2575 79.1946 18.955C77.4678 18.962 76.2242 19.3284 75.4923 20.047C75.0304 20.505 74.7959 21.0827 74.7959 21.7732C74.7959 22.8159 75.5207 23.9361 77.1125 23.9361C78.2211 23.9361 78.9317 23.4077 79.3012 23.0132L79.3794 23.7671H80.4524L80.4169 23.5416C80.3245 22.978 80.3103 22.4002 80.3103 21.8648ZM76.3451 20.6318C76.8283 20.1668 77.745 19.9272 79.0525 19.9272H79.1875V21.2659C79.1875 21.3575 79.1733 21.4984 79.1236 21.6323C78.9104 22.2593 78.285 22.9286 77.1765 22.9286C76.6009 22.9286 75.9329 22.5905 75.9329 21.6393C75.94 21.2307 76.075 20.8854 76.3451 20.6318Z" fill="#333333"/>
<path d="M102.297 21.8648V19.0677C102.297 17.102 101.366 16.0593 99.6108 16.0593C98.8789 16.0593 98.0759 16.2777 97.4719 16.6511L97.3582 16.7215L97.8343 17.5459L97.9551 17.4684C98.3957 17.2006 98.9571 17.0456 99.5327 17.0456H99.5611C100.059 17.0456 100.442 17.1795 100.705 17.4402C101.025 17.7572 101.181 18.2504 101.181 18.9479C99.4616 18.955 98.218 19.3213 97.4861 20.04C97.0242 20.4979 96.7897 21.0757 96.7897 21.7661C96.7897 22.8089 97.5145 23.9291 99.1063 23.9291C100.215 23.9291 100.925 23.4007 101.295 23.0061L101.373 23.76H102.446L102.411 23.5346C102.311 22.978 102.297 22.4002 102.297 21.8648ZM101.181 21.2659C101.181 21.3575 101.167 21.4984 101.117 21.6323C100.904 22.2593 100.279 22.9286 99.1703 22.9286C98.5947 22.9286 97.9267 22.5905 97.9267 21.6393C97.9267 21.2307 98.0617 20.8854 98.3317 20.6318C98.8149 20.1668 99.7317 19.9273 101.039 19.9273H101.174L101.181 21.2659Z" fill="#333333"/>
</g>
<defs>
<clipPath id="clip0">
<rect width="109" height="28" fill="white" transform="translate(1 4)"/>
</clipPath>
</defs>
</svg>
